<svg width="671" height="76" viewBox="0 0 671 76" fill="none" xmlns="http://www.w3.org/2000/svg">
<path d="M54.0525 13.2498L53.8188 12.2775L54.0525 13.2498ZM573.53 56.0512L573.831 57.0051L573.53 56.0512ZM669.887 26.4622C670.142 25.9724 669.952 25.3685 669.462 25.1132L661.481 20.9537C660.991 20.6984 660.387 20.8885 660.132 21.3783C659.877 21.868 660.067 22.472 660.557 22.7272L667.651 26.4246L663.954 33.5189C663.698 34.0087 663.888 34.6126 664.378 34.8679C664.868 35.1231 665.472 34.933 665.727 34.4433L669.887 26.4622ZM301.256 38.1253L301.678 37.2191L301.256 38.1253ZM1.23368 26.9723L14.4968 23.7848L14.0294 21.8401L0.766322 25.0277L1.23368 26.9723ZM41.023 17.4097L54.2862 14.2221L53.8188 12.2775L40.5557 15.465L41.023 17.4097ZM54.2862 14.2221C58.3846 13.2371 62.4936 12.3225 66.6115 11.4781L66.2097 9.5189C62.07 10.3678 57.9391 11.2873 53.8188 12.2775L54.2862 14.2221ZM91.4999 7.24065C99.8552 6.10559 108.232 5.25419 116.617 4.68503L116.481 2.68962C108.052 3.26181 99.6305 4.11774 91.2307 5.25885L91.4999 7.24065ZM141.85 3.8228C150.272 3.81825 158.688 4.09701 167.083 4.65762L167.216 2.66207C158.777 2.09847 150.316 1.81823 141.849 1.8228L141.85 3.8228ZM192.203 7.18542C200.541 8.30861 208.844 9.71221 217.097 11.3948L217.497 9.4351C209.2 7.74357 200.853 6.33249 192.47 5.20332L192.203 7.18542ZM241.652 17.2671C249.755 19.4953 257.795 21.9987 265.756 24.7757L266.415 22.8873C258.411 20.0955 250.329 17.5788 242.182 15.3386L241.652 17.2671ZM289.302 33.8869C293.169 35.5348 297.013 37.2498 300.833 39.0316L301.678 37.2191C297.838 35.4278 293.973 33.7037 290.086 32.047L289.302 33.8869ZM300.833 39.0316C304.363 40.6779 307.912 42.2672 311.481 43.7994L312.27 41.9616C308.72 40.4375 305.189 38.8567 301.678 37.2191L300.833 39.0316ZM333.187 52.3355C340.523 54.962 347.925 57.3556 355.381 59.5157L355.938 57.5947C348.521 55.4461 341.158 53.0651 333.861 50.4525L333.187 52.3355ZM377.976 65.3109C385.572 67.011 393.212 68.4742 400.884 69.6997L401.2 67.7248C393.568 66.5057 385.968 65.0503 378.412 63.3592L377.976 65.3109ZM424.021 72.666C431.762 73.4163 439.524 73.9273 447.296 74.1984L447.366 72.1996C439.635 71.93 431.914 71.4216 424.214 70.6753L424.021 72.666ZM470.622 74.2911C478.389 74.0821 486.155 73.6331 493.909 72.9436L493.731 70.9515C486.019 71.6374 478.294 72.0839 470.568 72.2918L470.622 74.2911ZM517.067 70.1607C524.743 68.9968 532.394 67.5943 540.012 65.9524L539.59 63.9973C532.013 65.6305 524.402 67.0256 516.768 68.1833L517.067 70.1607ZM562.65 60.3357C566.388 59.2846 570.116 58.1744 573.831 57.0051L573.23 55.0974C569.535 56.2605 565.827 57.3648 562.108 58.4104L562.65 60.3357ZM573.831 57.0051L585.764 53.2487L585.164 51.341L573.23 55.0974L573.831 57.0051ZM609.632 45.7359L633.499 38.2231L632.899 36.3153L609.031 43.8281L609.632 45.7359ZM657.367 30.7103L669.3 26.9539L668.7 25.0461L656.766 28.8025L657.367 30.7103ZM54.0525 13.2498L53.5851 11.3052L54.0525 13.2498ZM573.53 56.0512L574.131 57.9589L573.53 56.0512ZM670.774 26.9243C671.284 25.9448 670.904 24.7369 669.924 24.2264L653.962 15.9073C652.983 15.3968 651.775 15.777 651.264 16.7565C650.754 17.7361 651.134 18.944 652.113 19.4545L666.302 26.8492L658.907 41.0379C658.397 42.0174 658.777 43.2253 659.757 43.7358C660.736 44.2463 661.944 43.8661 662.454 42.8866L670.774 26.9243ZM301.256 38.1253L302.101 36.3128L301.256 38.1253ZM1.46736 27.9446L14.7305 24.7571L13.7958 20.8678L0.532645 24.0554L1.46736 27.9446ZM41.2567 18.382L54.5198 15.1944L53.5851 11.3052L40.322 14.4927L41.2567 18.382ZM54.5198 15.1944C58.6074 14.2121 62.7055 13.2999 66.8123 12.4578L66.0088 8.53929C61.8581 9.39043 57.7163 10.3123 53.5851 11.3052L54.5198 15.1944ZM91.6346 8.23155C99.9676 7.09951 108.322 6.25038 116.685 5.68274L116.414 1.69192C107.962 2.26562 99.5182 3.12382 91.0961 4.26795L91.6346 8.23155ZM141.85 4.8228C150.25 4.81826 158.644 5.09628 167.016 5.6554L167.283 1.66429C158.821 1.0992 150.338 0.818214 141.848 0.822802L141.85 4.8228ZM192.07 8.17646C200.386 9.29667 208.666 10.6965 216.897 12.3746L217.696 8.45526C209.378 6.75924 201.009 5.34443 192.604 4.21227L192.07 8.17646ZM241.387 18.2313C249.469 20.4536 257.487 22.9503 265.427 25.7199L266.744 21.943C258.719 19.1439 250.615 16.6205 242.448 14.3744L241.387 18.2313ZM288.909 34.8069C292.766 36.4504 296.6 38.1608 300.41 39.9379L302.101 36.3128C298.251 34.5168 294.376 32.7882 290.478 31.1271L288.909 34.8069ZM300.41 39.9379C303.949 41.5885 307.508 43.182 311.086 44.7183L312.664 41.0427C309.124 39.5227 305.603 37.946 302.101 36.3128L300.41 39.9379ZM332.85 53.277C340.206 55.9104 347.627 58.3104 355.103 60.4762L356.216 56.6342C348.819 54.4913 341.476 52.1167 334.198 49.5111L332.85 53.277ZM377.757 66.2868C385.373 67.9913 393.034 69.4584 400.726 70.6872L401.357 66.7373C393.746 65.5215 386.167 64.0699 378.631 62.3833L377.757 66.2868ZM423.924 73.6613C431.686 74.4136 439.469 74.926 447.261 75.1978L447.401 71.2002C439.69 70.9313 431.99 70.4243 424.31 69.68L423.924 73.6613ZM470.649 75.2908C478.437 75.0811 486.223 74.631 493.997 73.9397L493.643 69.9554C485.951 70.6395 478.247 71.0848 470.541 71.2922L470.649 75.2908ZM517.217 71.1494C524.913 69.9825 532.585 68.5762 540.223 66.9299L539.38 63.0197C531.823 64.6486 524.232 66.04 516.618 67.1946L517.217 71.1494ZM562.92 61.2984C566.669 60.2445 570.406 59.1314 574.131 57.9589L572.93 54.1435C569.244 55.3036 565.547 56.4049 561.838 57.4477L562.92 61.2984ZM574.131 57.9589L586.065 54.2025L584.864 50.3871L572.93 54.1435L574.131 57.9589ZM609.932 46.6897L633.799 39.1769L632.598 35.3615L608.731 42.8743L609.932 46.6897ZM657.667 31.6641L669.601 27.9077L668.399 24.0923L656.466 27.8487L657.667 31.6641Z" fill="#57ADFF"/>
</svg>
