<svg width="76" height="89" viewBox="0 0 76 89" fill="none" xmlns="http://www.w3.org/2000/svg">
<path d="M28.7127 69.9894L28.4039 69.0383L28.7127 69.9894ZM2.04581 79.3909C1.55378 79.1401 1.35825 78.5378 1.60909 78.0458L5.69678 70.0277C5.94762 69.5356 6.54984 69.3401 7.04187 69.5909C7.53391 69.8418 7.72943 70.444 7.47859 70.936L3.84509 78.0633L10.9723 81.6968C11.4644 81.9476 11.6599 82.5498 11.4091 83.0419C11.1582 83.5339 10.556 83.7294 10.064 83.4786L2.04581 79.3909ZM73.9926 0.378271C74.4595 4.18546 74.5897 7.96843 74.4041 11.6941L72.4065 11.5946C72.5865 7.98268 72.4603 4.31447 72.0074 0.62173L73.9926 0.378271ZM69.4186 33.698C66.5008 40.6863 62.3954 47.1279 57.293 52.7238L55.8151 51.3763C60.7628 45.9501 64.7438 39.7037 67.573 32.9274L69.4186 33.698ZM39.4526 66.5349C36.1539 68.2766 32.6697 69.756 29.0215 70.9405L28.4039 69.0383C31.9425 67.8894 35.3208 66.4547 38.5189 64.7663L39.4526 66.5349ZM29.0215 70.9405L22.4683 73.0682L21.8507 71.1659L28.4039 69.0383L29.0215 70.9405ZM9.36198 77.3235L2.80881 79.4511L2.19119 77.5489L8.74437 75.4212L9.36198 77.3235ZM28.7127 69.9894L28.0951 68.0871L28.7127 69.9894ZM1.59162 80.2818C0.607557 79.7801 0.216505 78.5757 0.718187 77.5916L8.89356 61.5553C9.39524 60.5712 10.5997 60.1802 11.5837 60.6819C12.5678 61.1836 12.9589 62.388 12.4572 63.3721L5.19019 77.6266L19.4447 84.8936C20.4288 85.3952 20.8198 86.5997 20.3181 87.5837C19.8164 88.5678 18.612 88.9589 17.6279 88.4572L1.59162 80.2818ZM74.9851 0.256542C75.4591 4.12096 75.5913 7.9613 75.4028 11.7439L71.4078 11.5448C71.5849 7.9898 71.4607 4.37898 71.0149 0.74346L74.9851 0.256542ZM70.3414 34.0833C67.3794 41.1776 63.2118 47.7168 58.0319 53.3976L55.0762 50.7025C59.9464 45.3612 63.8652 39.2124 66.6502 32.5421L70.3414 34.0833ZM39.9195 67.4193C36.5704 69.1875 33.0334 70.6893 29.3303 71.8916L28.0951 68.0871C31.5788 66.956 34.9043 65.5438 38.052 63.882L39.9195 67.4193ZM29.3303 71.8916L22.7771 74.0193L21.5419 70.2148L28.0951 68.0871L29.3303 71.8916ZM9.67079 78.2746L3.11761 80.4023L1.88239 76.5977L8.43556 74.4701L9.67079 78.2746Z" fill="#57ADFF"/>
</svg>
