<svg width="135" height="307" viewBox="0 0 135 307" fill="none" xmlns="http://www.w3.org/2000/svg">
<path d="M20.9686 287.586L21.56 288.392L20.9686 287.586ZM1.01147 301.348C0.927541 301.894 1.30205 302.404 1.84792 302.488L10.7434 303.856C11.2893 303.94 11.7999 303.565 11.8838 303.019C11.9677 302.473 11.5932 301.963 11.0473 301.879L3.14017 300.663L4.35561 292.756C4.43952 292.21 4.06503 291.7 3.51915 291.616C2.97328 291.532 2.46275 291.907 2.37883 292.452L1.01147 301.348ZM123.281 1.19411C124.376 5.55112 125.359 9.9174 126.232 14.2894L128.194 13.8977C127.314 9.49366 126.323 5.09543 125.22 0.706613L123.281 1.19411ZM130.183 40.8197C131.067 49.7681 131.501 58.7105 131.497 67.6166L133.497 67.6175C133.502 58.6458 133.064 49.6375 132.173 40.6231L130.183 40.8197ZM130.159 94.4082C129.27 103.331 127.941 112.184 126.185 120.938L128.146 121.331C129.915 112.513 131.253 103.595 132.149 94.6065L130.159 94.4082ZM119.617 146.949C117.002 155.505 113.967 163.929 110.523 172.187L112.369 172.956C115.838 164.638 118.895 156.153 121.53 147.533L119.617 146.949ZM98.9905 196.409C94.7602 204.271 90.1362 211.937 85.13 219.376L86.7893 220.493C91.8324 212.999 96.4903 205.276 100.752 197.356L98.9905 196.409ZM69.0721 240.864C63.3946 247.725 57.3562 254.335 50.9678 260.664L52.3752 262.084C58.8108 255.71 64.8937 249.051 70.613 242.139L69.0721 240.864ZM31.003 278.576C27.5419 281.387 23.9995 284.122 20.3771 286.779L21.56 288.392C25.2089 285.715 28.7772 282.96 32.2637 280.129L31.003 278.576ZM20.3771 286.779L15.6349 290.258L16.8179 291.871L21.56 288.392L20.3771 286.779ZM6.15056 297.215L1.40839 300.694L2.59131 302.306L7.33349 298.828L6.15056 297.215ZM20.9686 287.586L22.1515 289.198L20.9686 287.586ZM0.0230598 301.196C-0.144747 302.288 0.604235 303.309 1.69598 303.477L19.487 306.211C20.5788 306.379 21.5999 305.63 21.7677 304.538C21.9355 303.447 21.1865 302.426 20.0948 302.258L4.28049 299.827L6.71138 284.013C6.87919 282.921 6.13021 281.9 5.03846 281.732C3.94671 281.564 2.92563 282.313 2.75782 283.405L0.0230598 301.196ZM122.311 1.43786C123.402 5.77897 124.382 10.1293 125.252 14.4852L129.174 13.7019C128.292 9.2818 127.297 4.86759 126.19 0.462862L122.311 1.43786ZM129.188 40.918C130.069 49.8335 130.501 58.7429 130.497 67.6161L134.497 67.618C134.502 58.6134 134.062 49.5721 133.169 40.5248L129.188 40.918ZM129.164 94.309C128.278 103.199 126.954 112.02 125.204 120.741L129.126 121.528C130.902 112.678 132.245 103.727 133.144 94.7057L129.164 94.309ZM118.661 146.656C116.055 155.182 113.031 163.574 109.6 171.802L113.292 173.341C116.773 164.992 119.842 156.476 122.486 147.825L118.661 146.656ZM98.1099 195.935C93.8951 203.768 89.2882 211.406 84.3004 218.818L87.6189 221.051C92.6804 213.53 97.3554 205.779 101.632 197.83L98.1099 195.935ZM68.3016 240.226C62.6451 247.063 56.6289 253.648 50.264 259.953L53.079 262.795C59.538 256.397 65.6432 249.714 71.3835 242.776L68.3016 240.226ZM30.3727 277.8C26.9243 280.6 23.3949 283.326 19.7856 285.973L22.1515 289.198C25.8136 286.512 29.3949 283.747 32.894 280.905L30.3727 277.8ZM19.7856 285.973L15.0434 289.452L17.4093 292.677L22.1515 289.198L19.7856 285.973ZM5.55909 296.409L0.81691 299.887L3.18279 303.113L7.92497 299.634L5.55909 296.409Z" fill="#57ADFF"/>
</svg>
