<svg width="290" height="106" viewBox="0 0 290 106" fill="none" xmlns="http://www.w3.org/2000/svg">
<path d="M217.51 97.8062L217.628 98.7992L217.51 97.8062ZM288.285 90.1224C288.627 89.6886 288.553 89.0598 288.119 88.718L281.049 83.148C280.616 82.8062 279.987 82.8808 279.645 83.3146C279.303 83.7484 279.378 84.3772 279.812 84.719L286.095 89.6701L281.144 95.9539C280.803 96.3877 280.877 97.0165 281.311 97.3583C281.745 97.7001 282.374 97.6255 282.715 97.1917L288.285 90.1224ZM1.1813 2.07513C3.57536 5.48436 6.05164 8.81574 8.60629 12.0676L10.179 10.832C7.64643 7.60829 5.19149 4.30564 2.81805 0.925761L1.1813 2.07513ZM25.0061 30.7763C30.8295 36.7387 36.9463 42.3554 43.3236 47.6119L44.5957 46.0685C38.2736 40.8576 32.2098 35.2896 26.4369 29.3788L25.0061 30.7763ZM63.3477 62.3799C70.2915 66.9452 77.4677 71.1272 84.8424 74.9106L85.7553 73.1311C78.4443 69.3804 71.3301 65.2346 64.4464 60.7088L63.3477 62.3799ZM107.558 85.0614C115.296 88.0315 123.198 90.5879 131.231 92.7154L131.744 90.782C123.78 88.6729 115.945 86.1386 108.274 83.1942L107.558 85.0614ZM155.591 97.7812C163.761 99.0257 172.026 99.8357 180.353 100.197L180.439 98.1984C172.185 97.8407 163.992 97.0377 155.892 95.804L155.591 97.7812ZM205.23 99.9336C209.357 99.6675 213.491 99.29 217.628 98.7992L217.392 96.8132C213.291 97.2997 209.193 97.674 205.102 97.9378L205.23 99.9336ZM217.628 98.7992L235.125 96.7236L234.89 94.7375L217.392 96.8132L217.628 98.7992ZM270.12 92.5722L287.618 90.4965L287.382 88.5104L269.885 90.5861L270.12 92.5722ZM217.51 97.8062L217.746 99.7923L217.51 97.8062ZM289.071 90.7412C289.754 89.8736 289.605 88.6161 288.738 87.9325L274.599 76.7926C273.731 76.109 272.474 76.2582 271.79 77.1258C271.107 77.9934 271.256 79.2509 272.123 79.9345L284.691 89.8367L274.789 102.404C274.105 103.272 274.254 104.53 275.122 105.213C275.99 105.897 277.247 105.748 277.931 104.88L289.071 90.7412ZM0.362928 2.64982C2.76728 6.07372 5.25425 9.41946 7.81993 12.6853L10.9654 10.2142C8.44382 7.00457 5.99957 3.71628 3.63643 0.351075L0.362928 2.64982ZM24.2907 31.475C30.1394 37.4632 36.2827 43.1043 42.6876 48.3835L45.2317 45.2969C38.9373 40.1088 32.9 34.565 27.1523 28.6801L24.2907 31.475ZM62.7983 63.2155C69.7721 67.8006 76.9794 72.0006 84.3859 75.8003L86.2118 72.2414C78.9327 68.507 71.8495 64.3793 64.9958 59.8732L62.7983 63.2155ZM107.199 85.995C114.971 88.9779 122.908 91.5454 130.975 93.6821L132 89.8154C124.071 87.7155 116.27 85.1922 108.633 82.2606L107.199 85.995ZM155.441 98.7698C163.646 100.02 171.947 100.833 180.309 101.196L180.483 97.1993C172.264 96.8432 164.107 96.0437 156.043 94.8154L155.441 98.7698ZM205.295 100.932C209.439 100.664 213.591 100.285 217.746 99.7923L217.274 95.8201C213.191 96.3045 209.111 96.6772 205.037 96.9398L205.295 100.932ZM217.746 99.7923L235.243 97.7166L234.772 93.7444L217.274 95.8201L217.746 99.7923ZM270.238 93.5652L287.735 91.4896L287.264 87.5174L269.767 89.5931L270.238 93.5652Z" fill="#57ADFF"/>
</svg>
