<svg width="103" height="91" viewBox="0 0 103 91" fill="none" xmlns="http://www.w3.org/2000/svg">
<path d="M102.378 42.9053C92.6802 24.0992 73.4822 11.3752 51.4999 11.3752C29.5176 11.3752 10.3142 24.1081 0.622194 42.9071C0.21313 43.7114 0 44.5999 0 45.5011C0 46.4023 0.21313 47.2909 0.622194 48.0952C10.3196 66.9012 29.5176 79.6252 51.4999 79.6252C73.4822 79.6252 92.6856 66.8924 102.378 48.0934C102.787 47.2891 103 46.4005 103 45.4994C103 44.5982 102.787 43.7096 102.378 42.9053ZM51.4999 71.094C46.407 71.094 41.4285 69.5929 37.194 66.7807C32.9594 63.9684 29.659 59.9712 27.71 55.2945C25.761 50.6179 25.2511 45.4719 26.2447 40.5072C27.2382 35.5424 29.6907 30.9821 33.2919 27.4027C36.8931 23.8234 41.4813 21.3858 46.4763 20.3983C51.4713 19.4107 56.6488 19.9176 61.354 21.8547C66.0592 23.7918 70.0808 27.0722 72.9102 31.2811C75.7397 35.49 77.2499 40.4383 77.2499 45.5002C77.2515 48.8617 76.5866 52.1906 75.2931 55.2965C73.9997 58.4024 72.103 61.2245 69.7116 63.6014C67.3201 65.9783 64.4808 67.8635 61.3559 69.1491C58.2311 70.4347 54.8819 71.0956 51.4999 71.094ZM51.4999 28.4377C49.9677 28.459 48.4453 28.6856 46.974 29.1114C48.1868 30.7495 48.7688 32.7654 48.6144 34.7934C48.46 36.8215 47.5796 38.7274 46.1326 40.1655C44.6857 41.6037 42.7682 42.4788 40.7277 42.6323C38.6873 42.7857 36.6591 42.2072 35.011 41.0018C34.0725 44.4384 34.2419 48.0811 35.4953 51.417C36.7488 54.753 39.0233 57.6142 41.9985 59.5981C44.9738 61.5819 48.5001 62.5884 52.081 62.476C55.6619 62.3636 59.1173 61.1378 61.9606 58.9713C64.804 56.8047 66.8922 53.8065 67.9313 50.3986C68.9705 46.9907 68.9082 43.3446 67.7533 39.9737C66.5985 36.6028 64.4091 33.6767 61.4935 31.6073C58.5778 29.5379 55.0826 28.4294 51.4999 28.4377Z" fill="white"/>
</svg>
