<svg width="111" height="105" viewBox="0 0 111 105" fill="none" xmlns="http://www.w3.org/2000/svg">
<g filter="url(#filter0_d_220_75)">
<path d="M46.4473 54.5178H64.5527V60.553H46.4473V54.5178Z" fill="white"/>
<path d="M87.5626 60.553H70.5879V63.5706C70.5879 65.2381 69.2378 66.5881 67.5703 66.5881H43.4297C41.7622 66.5881 40.4121 65.2381 40.4121 63.5706V60.553H23.4374C19.5358 60.553 16.0852 58.0658 14.8499 54.3646L4 21.8093V87.7112C4 92.7028 8.06116 96.7639 13.0527 96.7639H97.9473C102.939 96.7639 107 92.7028 107 87.7112V21.8117L96.1493 54.3646C94.9148 58.0658 91.4642 60.553 87.5626 60.553Z" fill="white"/>
<path d="M67.5702 6.23657H43.4296C38.438 6.23657 34.3769 10.2977 34.3769 15.2893V18.3069H9.19189L20.573 52.455C20.9856 53.6896 22.1376 54.5178 23.4374 54.5178H40.412V51.5002C40.412 49.8327 41.7621 48.4827 43.4296 48.4827H67.5702C69.2378 48.4827 70.5878 49.8327 70.5878 51.5002V54.5178H87.5625C88.8622 54.5178 90.0143 53.6896 90.4268 52.455L101.809 18.3069H76.623V15.2893C76.623 10.2977 72.5618 6.23657 67.5702 6.23657ZM40.412 18.3069V15.2893C40.412 13.6241 41.7644 12.2717 43.4296 12.2717H67.5702C69.2354 12.2717 70.5878 13.6241 70.5878 15.2893V18.3069H40.412Z" fill="white"/>
</g>
<defs>
<filter id="filter0_d_220_75" x="0" y="0.000244141" width="111" height="111" filterUnits="userSpaceOnUse" color-interpolation-filters="sRGB">
<feFlood flood-opacity="0" result="BackgroundImageFix"/>
<feColorMatrix in="SourceAlpha" type="matrix" values="0 0 0 0 0 0 0 0 0 0 0 0 0 0 0 0 0 0 127 0" result="hardAlpha"/>
<feOffset dy="4"/>
<feGaussianBlur stdDeviation="2"/>
<feColorMatrix type="matrix" values="0 0 0 0 0 0 0 0 0 0 0 0 0 0 0 0 0 0 0.25 0"/>
<feBlend mode="normal" in2="BackgroundImageFix" result="effect1_dropShadow_220_75"/>
<feBlend mode="normal" in="SourceGraphic" in2="effect1_dropShadow_220_75" result="shape"/>
</filter>
</defs>
</svg>
