<svg width="24" height="24" viewBox="0 0 24 24" fill="none" xmlns="http://www.w3.org/2000/svg">
<g opacity="0.4">
<path d="M12.0001 8.8756C10.2798 8.8756 8.87589 10.2795 8.87589 11.9998C8.87589 13.7201 10.2798 15.124 12.0001 15.124C13.7204 15.124 15.1243 13.7201 15.1243 11.9998C15.1243 10.2795 13.7204 8.8756 12.0001 8.8756ZM21.3704 11.9998C21.3704 10.7061 21.3821 9.42404 21.3095 8.13263C21.2368 6.63263 20.8946 5.30138 19.7978 4.2045C18.6985 3.10528 17.3696 2.76544 15.8696 2.69278C14.5759 2.62013 13.2939 2.63185 12.0025 2.63185C10.7087 2.63185 9.42667 2.62013 8.13527 2.69278C6.63527 2.76544 5.30402 3.10763 4.20714 4.2045C3.10792 5.30372 2.76808 6.63263 2.69542 8.13263C2.62277 9.42638 2.63449 10.7084 2.63449 11.9998C2.63449 13.2912 2.62277 14.5756 2.69542 15.867C2.76808 17.367 3.11027 18.6983 4.20714 19.7951C5.30636 20.8944 6.63527 21.2342 8.13527 21.3069C9.42902 21.3795 10.711 21.3678 12.0025 21.3678C13.2962 21.3678 14.5782 21.3795 15.8696 21.3069C17.3696 21.2342 18.7009 20.892 19.7978 19.7951C20.897 18.6959 21.2368 17.367 21.3095 15.867C21.3845 14.5756 21.3704 13.2936 21.3704 11.9998ZM12.0001 16.8068C9.33995 16.8068 7.19308 14.66 7.19308 11.9998C7.19308 9.33966 9.33995 7.19278 12.0001 7.19278C14.6603 7.19278 16.8071 9.33966 16.8071 11.9998C16.8071 14.66 14.6603 16.8068 12.0001 16.8068ZM17.004 8.11857C16.3829 8.11857 15.8814 7.617 15.8814 6.99591C15.8814 6.37482 16.3829 5.87325 17.004 5.87325C17.6251 5.87325 18.1267 6.37482 18.1267 6.99591C18.1269 7.14339 18.0979 7.28946 18.0416 7.42575C17.9852 7.56204 17.9025 7.68588 17.7983 7.79016C17.694 7.89445 17.5701 7.97713 17.4339 8.03349C17.2976 8.08984 17.1515 8.11875 17.004 8.11857Z" fill="white"/>
</g>
</svg>
