<svg width="42" height="42" viewBox="0 0 42 42" fill="none" xmlns="http://www.w3.org/2000/svg">
<path d="M20.9999 15.5323C17.9894 15.5323 15.5326 17.9891 15.5326 20.9997C15.5326 24.0102 17.9894 26.467 20.9999 26.467C24.0105 26.467 26.4673 24.0102 26.4673 20.9997C26.4673 17.9891 24.0105 15.5323 20.9999 15.5323ZM37.398 20.9997C37.398 18.7356 37.4185 16.492 37.2914 14.2321C37.1642 11.6071 36.5654 9.27739 34.6458 7.35786C32.7222 5.43423 30.3966 4.8395 27.7716 4.71235C25.5076 4.5852 23.264 4.60571 21.004 4.60571C18.74 4.60571 16.4964 4.5852 14.2365 4.71235C11.6115 4.8395 9.28179 5.43833 7.36225 7.35786C5.43862 9.28149 4.8439 11.6071 4.71675 14.2321C4.5896 16.4961 4.61011 18.7397 4.61011 20.9997C4.61011 23.2596 4.5896 25.5073 4.71675 27.7672C4.8439 30.3922 5.44272 32.7219 7.36225 34.6415C9.28589 36.5651 11.6115 37.1598 14.2365 37.287C16.5005 37.4141 18.7441 37.3936 21.004 37.3936C23.2681 37.3936 25.5117 37.4141 27.7716 37.287C30.3966 37.1598 32.7263 36.561 34.6458 34.6415C36.5695 32.7178 37.1642 30.3922 37.2914 27.7672C37.4226 25.5073 37.398 23.2637 37.398 20.9997ZM20.9999 29.412C16.3447 29.412 12.5876 25.6549 12.5876 20.9997C12.5876 16.3444 16.3447 12.5874 20.9999 12.5874C25.6552 12.5874 29.4123 16.3444 29.4123 20.9997C29.4123 25.6549 25.6552 29.412 20.9999 29.412ZM29.7568 14.2075C28.6699 14.2075 27.7921 13.3297 27.7921 12.2428C27.7921 11.1559 28.6699 10.2782 29.7568 10.2782C30.8437 10.2782 31.7214 11.1559 31.7214 12.2428C31.7218 12.5009 31.6712 12.7565 31.5725 12.995C31.4739 13.2336 31.3292 13.4503 31.1467 13.6328C30.9642 13.8153 30.7475 13.96 30.509 14.0586C30.2705 14.1572 30.0149 14.2078 29.7568 14.2075Z" fill="#57ADFF"/>
</svg>
