<svg width="54" height="55" viewBox="0 0 54 55" fill="none" xmlns="http://www.w3.org/2000/svg">
<path d="M48.9264 15.8918C48.6658 14.8876 48.1548 13.9719 47.4445 13.2362C46.7343 12.5005 45.8497 11.9707 44.8793 11.6999C41.3075 10.7061 26.9893 10.7061 26.9893 10.7061C26.9893 10.7061 12.6712 10.7061 9.09934 11.6946C8.12855 11.9646 7.24352 12.4941 6.53314 13.2299C5.82276 13.9657 5.31203 14.8819 5.05224 15.8865C4.09668 19.5868 4.09668 27.3046 4.09668 27.3046C4.09668 27.3046 4.09668 35.0225 5.05224 38.7175C5.57857 40.758 7.132 42.365 9.09934 42.9094C12.6712 43.9032 26.9893 43.9032 26.9893 43.9032C26.9893 43.9032 41.3075 43.9032 44.8793 42.9094C46.8518 42.365 48.4001 40.758 48.9264 38.7175C49.882 35.0225 49.882 27.3046 49.882 27.3046C49.882 27.3046 49.882 19.5868 48.9264 15.8918ZM22.4415 34.3881V20.2212L34.2966 27.2518L22.4415 34.3881Z" fill="#57ADFF"/>
</svg>
