<svg width="29" height="30" viewBox="0 0 29 30" fill="none" xmlns="http://www.w3.org/2000/svg">
<g opacity="0.4">
<path d="M26.6579 8.6748C26.5135 8.11828 26.2302 7.61076 25.8366 7.20303C25.443 6.79531 24.9527 6.5017 24.4149 6.35156C22.4354 5.80078 14.5 5.80078 14.5 5.80078C14.5 5.80078 6.56465 5.80078 4.58506 6.34863C4.04703 6.49828 3.55653 6.79173 3.16283 7.19953C2.76912 7.60733 2.48607 8.11511 2.34209 8.67188C1.8125 10.7227 1.8125 15 1.8125 15C1.8125 15 1.8125 19.2773 2.34209 21.3252C2.63379 22.4561 3.49473 23.3467 4.58506 23.6484C6.56465 24.1992 14.5 24.1992 14.5 24.1992C14.5 24.1992 22.4354 24.1992 24.4149 23.6484C25.5081 23.3467 26.3662 22.4561 26.6579 21.3252C27.1875 19.2773 27.1875 15 27.1875 15C27.1875 15 27.1875 10.7227 26.6579 8.6748ZM11.9795 18.9258V11.0742L18.5498 14.9707L11.9795 18.9258Z" fill="white"/>
</g>
</svg>
